<svg version="1.1" xmlns="http://www.w3.org/2000/svg" viewBox="0 0 357.21943229232147 209.15523171421756" width="357.21943229232147" height="209.15523171421756">
  <!-- svg-source:excalidraw -->
  
  <defs>
    <style class="style-fonts">
      @font-face {
        font-family: "Virgil";
        src: url("https://excalidraw.com/Virgil.woff2");
      }
      @font-face {
        font-family: "Cascadia";
        src: url("https://excalidraw.com/Cascadia.woff2");
      }
    </style>
  </defs>
  <g stroke-linecap="round" transform="translate(10.844543059915395 10) rotate(0 167.4972734242548 94.25702078627262)"><path d="M-0.92 1.61 L336.02 -1.26 L334.89 188.58 L-0.18 189.26" stroke="none" stroke-width="0" fill="#fff"></path><path d="M-0.95 -0.61 C133.18 0.44, 263.85 -0.68, 335.44 0.43 M0.53 -0.39 C107.82 -1.05, 216.2 -1.16, 335.01 0.01 M333.2 0.87 C334.62 43.96, 334.46 89.95, 333.01 188.1 M335.4 -0.79 C333.26 64.15, 334.61 126.38, 334.49 188.71 M334.74 188.16 C213.64 187.95, 90.68 188.02, 0.73 187.49 M334.8 188.48 C222.1 187, 107.87 186.72, 0.67 188.68 M0.6 189.33 C-1.58 116.13, -2.18 45.18, -0.18 1.46 M0.76 188.4 C-1.21 144.53, -2.05 100.18, -0.63 0.89" stroke="#495057" stroke-width="1" fill="none"></path></g><g stroke-linecap="round"><g transform="translate(10.844543059915281 10.636871762069518) rotate(0 166.84888981555366 92.25805673811843)"><path d="M-0.84 -0.54 C54.96 30.31, 278.88 154.29, 334.54 185.05 M0.91 1.79 C56.66 32.27, 278.83 152.58, 334.03 183.12" stroke="#495057" stroke-width="1" fill="none"></path></g></g><g stroke-linecap="round"><g transform="translate(345.8390899084245 11.273743524138808) rotate(0 -167.00559738270567 94.0443506394418)"><path d="M-0.54 0.82 C-56.31 32.07, -278.78 155.52, -334.63 186.65 M1.38 0.21 C-54.51 31.68, -279.04 157, -335.39 187.88" stroke="#495057" stroke-width="1" fill="none"></path></g></g></svg>